<?xml version="1.0" encoding="utf-8"?>
<!-- Generator: Adobe Illustrator 15.0.0, SVG Export Plug-In . SVG Version: 6.00 Build 0)  -->
<!DOCTYPE svg PUBLIC "-//W3C//DTD SVG 1.1//EN" "http://www.w3.org/Graphics/SVG/1.1/DTD/svg11.dtd">
<svg version="1.1" id="Layer_1" xmlns="http://www.w3.org/2000/svg" xmlns:xlink="http://www.w3.org/1999/xlink" x="0px" y="0px"
	 width="188px" height="63px" viewBox="-3 0 188 63" enable-background="new -3 0 188 63" xml:space="preserve">
<g>
	<g>
		<path fill="#333333" d="M141.625,21.401c-9.636-5.96-15.463-8.04-21.154-20.828C119.014,9.708,129.995,16.841,141.625,21.401z"/>
		<path fill="#333333" d="M129.589,0.012c-3.226,5.002,1.464,11.793,7.204,17.232C132.6,11.458,129.669,8.854,129.589,0.012z"/>
		<path fill="#333333" d="M136.073,0.798c-3.683,1.862-3.468,6.25-2.157,10.169C133.619,7.191,132.891,5.276,136.073,0.798z"/>
		<path fill="#333333" d="M144.918,23.197c-11.794-3.641-23.663-6.596-42.438-17.455C105.003,14.551,134.929,21.766,144.918,23.197z
			"/>
		<path fill="#333333" d="M150.621,25.492c-11.811-2.85-31.44-2.272-51.644-10.171C105.266,26.175,139.484,24.045,150.621,25.492z"
			/>
		<path fill="#333333" d="M160.248,29.159c-8.889-3.673-21.242-3.417-29.93-2.808c-22.627,1.581-43.724,8.011-65.831,8.402
			c-0.148-0.068-0.417,0.055-0.135,0.24c16.648,1.597,31.592-0.355,46.5-2.834C125.744,29.686,143.532,26.052,160.248,29.159z"/>
		<path fill="#333333" d="M169.961,38.155c-0.17-0.405-0.832-1.297-1.129-1.642c-0.281-0.324-0.103-0.974-0.197-1.349
			c-0.11-0.452,0.168-1.613-0.194-1.936c-1.379-1.233-2.234-1.703-4.275-2.468l-0.105,0.027c-0.061-0.035-0.119-0.061-0.183-0.079
			c-11.328-3.025-44.192,1.394-54.443,2.842c12.669,1.228,38.244-3.511,53.464,1.462c0.26,0.395,0.817,0.779,1.262,0.999
			c0.539,0.269,1.104,0.543,1.667,0.767c1.826,0.728,3.712,2.123,3.854,4.035c0.174-0.427,0.462-0.814,0.536-1.276
			C170.298,39.053,170.151,38.607,169.961,38.155z"/>
	</g>
	<path fill="#F37023" d="M114.278,57.395H97.017l3.957-14.603h6.809l-5.734-3.979h17.261l-1.078,3.979h-9.24l-0.904,3.33h7.934
		l-1.07,3.97h-7.941l-0.892,3.322h9.25L114.278,57.395L114.278,57.395z M133.827,57.395h-6.7l0.143-0.53
		c-1.067,0.438-2.233,0.654-3.498,0.654c-4.809,0-7.215-1.082-7.215-3.253c0-0.302,0.05-0.627,0.144-0.973
		c0.43-1.589,1.483-2.729,3.17-3.41c1.033-0.417,2.663-0.72,4.9-0.92c2.234-0.202,3.875-0.517,4.91-0.946l0.105-0.395
		c0.063-0.221,0.093-0.427,0.093-0.609c0.021-0.799-0.531-1.203-1.645-1.203c-1.373,0-2.242,0.608-2.61,1.813h-7.047
		c1.72-3.303,5.218-4.955,10.503-4.955c4.847,0,7.273,1.494,7.284,4.466c0,0.61-0.095,1.281-0.287,2L133.827,57.395L133.827,57.395z
		 M128.29,53.085l0.514-1.891c-0.367,0.146-0.954,0.267-1.767,0.363c-0.802,0.095-1.402,0.222-1.784,0.376
		c-0.625,0.258-1.01,0.642-1.15,1.151c-0.034,0.143-0.054,0.271-0.054,0.393c0,0.658,0.596,0.983,1.78,0.983
		C127.228,54.461,128.043,54.003,128.29,53.085L128.29,53.085z M153.722,56.178C152.5,60.725,149.064,63,143.415,63
		c-5.561,0-8.348-1.343-8.354-4.029c0-0.178,0.013-0.351,0.039-0.523h7.805c-0.045,0.173-0.07,0.332-0.07,0.468
		c0.021,0.651,0.506,0.973,1.459,0.973c1.152,0,1.924-0.731,2.319-2.19l0.206-0.794c-1.037,0.414-2.158,0.616-3.366,0.616
		c-4.542,0-6.821-1.516-6.832-4.552c0-0.677,0.108-1.435,0.325-2.255l0.329-1.204c1.232-4.562,4.631-6.841,10.19-6.841
		c1.184,0,2.198,0.221,3.035,0.659l0.146-0.533h6.704L153.722,56.178L153.722,56.178z M148.09,52.217l1.138-4.213
		c0.104-0.375,0.157-0.697,0.157-0.963c0-0.828-0.442-1.245-1.325-1.245c-1.173,0-1.964,0.736-2.366,2.208l-1.139,4.213
		c-0.095,0.372-0.145,0.693-0.145,0.961c0,0.83,0.444,1.246,1.326,1.246C146.912,54.424,147.697,53.687,148.09,52.217L148.09,52.217
		z M161.675,57.395h-6.706l5.03-18.582h6.706L161.675,57.395L161.675,57.395z M184.254,51.072h-11.54l-0.302,1.117
		c-0.105,0.37-0.156,0.696-0.156,0.974c0,0.821,0.441,1.233,1.322,1.233c1.17,0,1.924-0.608,2.251-1.819h7.807
		c-1.702,3.298-5.331,4.94-10.893,4.94c-5.496,0-8.239-1.608-8.239-4.837c0-0.594,0.097-1.258,0.3-1.983l0.317-1.205
		c1.231-4.548,5.105-6.826,11.627-6.826c5.5,0,8.252,1.602,8.252,4.804c0,0.619-0.102,1.299-0.311,2.037L184.254,51.072
		L184.254,51.072z M176.958,48.492l0.146-0.517c0.095-0.356,0.144-0.672,0.144-0.949c0.019-0.844-0.417-1.273-1.309-1.273
		c-1.184,0-1.972,0.741-2.372,2.223l-0.144,0.517H176.958L176.958,48.492z"/>
	<path fill="#59595C" d="M5.638,57.395h-8.017l3.958-14.603h6.807l-5.735-3.979h8.014L5.638,57.395L5.638,57.395z M24.157,57.395
		h-6.705l2.553-9.431c0.095-0.376,0.146-0.697,0.155-0.966c0-0.827-0.442-1.245-1.323-1.245c-1.177,0-1.966,0.741-2.368,2.223
		l-2.552,9.419H7.211l3.958-14.603h6.703l-0.134,0.5c1.05-0.418,2.477-0.625,4.282-0.625c3.241,0,4.859,1.241,4.859,3.724
		c0,0.638-0.113,1.366-0.339,2.181L24.157,57.395L24.157,57.395z M43.723,57.395h-6.705l0.143-0.53
		c-1.063,0.438-2.191,0.654-3.379,0.654c-4.575,0-6.855-1.538-6.835-4.614c0.008-0.665,0.119-1.408,0.34-2.22l0.327-1.204
		c1.224-4.54,4.616-6.814,10.178-6.814c1.202,0,2.223,0.207,3.05,0.625l1.206-4.48h6.708L43.723,57.395L43.723,57.395z
		 M38.43,52.189l1.141-4.214c0.098-0.373,0.143-0.694,0.143-0.963c0-0.828-0.438-1.246-1.318-1.246
		c-1.182,0-1.967,0.735-2.361,2.209l-1.14,4.214c-0.104,0.37-0.155,0.692-0.155,0.959c0,0.832,0.441,1.248,1.322,1.248
		C37.242,54.396,38.028,53.66,38.43,52.189L38.43,52.189z M56.217,41.814h-6.705l0.812-3.002h6.708L56.217,41.814L56.217,41.814z
		 M52,57.395h-6.703l3.954-14.603h6.706L52,57.395L52,57.395z M71.555,57.395h-6.706l0.144-0.53
		c-1.065,0.438-2.232,0.654-3.496,0.654c-4.812,0-7.215-1.082-7.215-3.253c0-0.302,0.049-0.627,0.142-0.973
		c0.429-1.589,1.484-2.729,3.169-3.41c1.033-0.417,2.664-0.72,4.9-0.92c2.235-0.202,3.876-0.517,4.912-0.946l0.102-0.395
		c0.063-0.221,0.095-0.427,0.095-0.609c0.018-0.799-0.533-1.203-1.648-1.203c-1.374,0-2.243,0.608-2.607,1.813h-7.05
		c1.722-3.303,5.22-4.955,10.505-4.955c4.845,0,7.273,1.494,7.283,4.466c0,0.61-0.096,1.281-0.29,2L71.555,57.395L71.555,57.395z
		 M66.015,53.085l0.51-1.891c-0.367,0.146-0.951,0.267-1.762,0.363c-0.804,0.095-1.402,0.222-1.787,0.376
		c-0.628,0.258-1.011,0.642-1.15,1.151c-0.037,0.143-0.055,0.271-0.055,0.393c0,0.658,0.596,0.983,1.779,0.983
		C64.953,54.461,65.77,54.003,66.015,53.085L66.015,53.085z M90.073,57.395H83.37l2.553-9.431c0.091-0.376,0.146-0.697,0.156-0.966
		c0-0.827-0.443-1.245-1.325-1.245c-1.176,0-1.966,0.741-2.369,2.223l-2.55,9.419h-6.708l3.958-14.603h6.703l-0.133,0.5
		c1.051-0.418,2.479-0.625,4.284-0.625c3.24,0,4.859,1.241,4.859,3.724c0,0.638-0.113,1.366-0.342,2.181L90.073,57.395
		L90.073,57.395z"/>
	<polygon fill="#59595C" points="2.651,38.813 -2.379,57.395 5.638,57.395 10.667,38.813 	"/>
	<polygon fill="#F37023" points="102.05,38.876 97.017,57.457 105.031,57.457 110.063,38.876 	"/>
	<polygon fill="#FFFFFF" points="107.578,42.805 100.77,42.805 101.844,38.823 	"/>
</g>
</svg>
